<?xml version="1.0" encoding="utf-8"?>
<!-- Generator: Adobe Illustrator 16.0.0, SVG Export Plug-In . SVG Version: 6.00 Build 0)  -->
<!DOCTYPE svg PUBLIC "-//W3C//DTD SVG 1.1//EN" "http://www.w3.org/Graphics/SVG/1.1/DTD/svg11.dtd">
<svg version="1.1" xmlns="http://www.w3.org/2000/svg" xmlns:xlink="http://www.w3.org/1999/xlink" x="0px" y="0px"
	 width="841.89px" height="595.28px" viewBox="0 0 841.89 595.28" enable-background="new 0 0 841.89 595.28" xml:space="preserve">
<g id="Layer_1" display="none">
</g>
<g id="Layer_2">
	<path display="none" fill="none" d="M470.329,257.546v-37.354V257.546z"/>
	<g>
		<path fill="#FDFDFE" d="M212.093,232.488c13.996,0,25.959,4.965,35.889,14.893c9.928,9.848,14.893,21.811,14.893,35.889v62.622
			c0,3.174-1.141,5.902-3.418,8.18c-2.197,2.197-4.883,3.295-8.057,3.295s-5.859-1.098-8.057-3.295
			c-2.197-2.277-3.296-5.006-3.296-8.18V283.27c0-7.73-2.728-14.322-8.179-19.775c-5.453-5.451-12.045-8.179-19.775-8.179h-0.854
			c-7.732,0-14.324,2.728-19.775,8.179c-5.453,5.453-8.179,12.045-8.179,19.775v62.622c0,3.338-1.181,6.104-3.54,8.301
			c-2.361,2.279-5.169,3.336-8.423,3.174c-3.094-0.162-5.697-1.422-7.813-3.783c-2.035-2.359-3.052-5.129-3.052-8.303V196.111
			c0-3.498,1.383-6.388,4.15-8.667c2.766-2.359,5.939-3.174,9.521-2.441c2.686,0.488,4.883,1.873,6.592,4.15
			c1.709,2.197,2.563,4.681,2.563,7.446v44.312c8.463-5.615,17.78-8.423,27.954-8.423H212.093z"/>
		<path fill="#FFFFFF" d="M382.381,283.636c0,4.15-1.059,7.977-3.174,11.475c-4.395,7.568-10.946,11.353-19.653,11.353
			l-56.763,0.122c0,7.732,2.726,14.324,8.179,19.775c5.451,5.453,12.043,8.178,19.775,8.178h0.854
			c9.439,0,16.968-3.863,22.583-11.596c3.254-4.475,7.526-5.777,12.817-3.906c3.662,1.221,6.062,3.662,7.202,7.324
			c1.139,3.744,0.568,7.162-1.709,10.254c-10.174,13.836-23.804,20.752-40.894,20.752h-0.854c-13.916,0-25.839-4.922-35.767-14.771
			c-9.848-9.766-14.853-21.605-15.015-35.521v-23.438c0-13.996,4.963-25.919,14.893-35.767c9.928-9.928,21.891-14.893,35.889-14.893
			h0.854c14.16,0,26.203,5.047,36.133,15.137c4.719,4.803,8.341,10.296,10.864,16.479c1.383,3.338,2.359,6.796,2.93,10.376
			c0.568,2.85,0.854,4.272,0.854,4.272S382.381,280.706,382.381,283.636z M302.791,283.758h56.641
			c-0.082-7.648-2.808-14.24-8.179-19.775c-5.535-5.451-12.085-8.179-19.653-8.179h-0.854c-7.732,0-14.324,2.728-19.775,8.179
			c-5.453,5.453-8.179,12.005-8.179,19.653V283.758z"/>
		<path fill="#FFFFFF" d="M419.002,188.543c2.197,2.279,3.296,4.965,3.296,8.057v109.985c0,7.732,2.726,14.324,8.179,19.775
			c5.451,5.453,12.043,8.178,19.775,8.178h0.123c3.174,0,5.859,1.1,8.057,3.297c2.277,2.279,3.418,4.965,3.418,8.057
			c0,3.174-1.141,5.902-3.418,8.18c-2.197,2.197-4.883,3.295-8.057,3.295h-0.123c-13.998,0-25.961-4.963-35.889-14.893
			c-9.93-9.928-14.893-21.891-14.893-35.889V196.6c0-3.092,1.099-5.777,3.296-8.057c2.277-2.197,5.005-3.296,8.179-3.296
			C414.037,185.247,416.723,186.346,419.002,188.543z"/>
		<path fill="#FFFFFF" d="M547.908,339.3c1.871,2.441,2.604,5.209,2.197,8.301c-0.408,3.094-1.873,5.576-4.395,7.447
			c-2.441,1.873-5.209,2.604-8.301,2.197c-3.094-0.406-5.574-1.871-7.445-4.395l-34.303-45.167v38.208
			c0,3.174-1.098,5.902-3.295,8.18c-2.279,2.197-4.965,3.295-8.057,3.295c-3.174,0-5.902-1.098-8.18-3.295
			c-2.197-2.277-3.295-5.006-3.295-8.18V196.233c0-3.174,1.098-5.859,3.295-8.057c2.277-2.277,5.006-3.418,8.18-3.418
			c3.092,0,5.777,1.141,8.057,3.418c2.197,2.197,3.295,4.883,3.295,8.057v74.097l32.838-32.837c2.197-2.197,4.883-3.296,8.057-3.296
			c3.092,0,5.736,1.099,7.934,3.296s3.297,4.843,3.297,7.935c0,3.094-1.1,5.737-3.297,7.935l-35.033,35.156L547.908,339.3z"/>
		<path fill="#FDFDFE" d="M614.438,232.488c13.996,0,25.959,4.965,35.889,14.893c9.928,9.93,14.893,21.893,14.893,35.889v23.315
			c0,13.998-4.965,25.961-14.893,35.889c-9.93,9.93-21.893,14.893-35.889,14.893h-0.855c-13.998,0-25.961-4.963-35.889-14.893
			c-9.93-9.928-14.893-21.891-14.893-35.889V283.27c0-13.996,4.963-25.959,14.893-35.889c9.928-9.928,21.891-14.893,35.889-14.893
			H614.438z M642.391,283.27c0-7.73-2.768-14.322-8.301-19.775c-5.453-5.451-12.004-8.179-19.652-8.179h-0.855
			c-7.732,0-14.324,2.728-19.775,8.179c-5.453,5.453-8.178,12.045-8.178,19.775v23.315c0,7.732,2.725,14.324,8.178,19.775
			c5.451,5.453,12.043,8.178,19.775,8.178h0.855c7.648,0,14.199-2.725,19.652-8.178c5.533-5.451,8.301-12.043,8.301-19.775V283.27z"
			/>
	</g>
	<circle fill="#F05824" cx="536.519" cy="245.465" r="11.269"/>
	<circle fill="#F05824" cx="538.946" cy="346.097" r="11.269"/>
	<polyline fill="#F05824" points="547.934,339.3 509.457,288.519 544.557,253.362 528.506,237.512 495.662,270.33 495.662,307.684 
		529.965,352.903 	"/>
	<circle fill="#F05824" cx="494.404" cy="287.46" r="11.268"/>
	<polygon fill="#F05824" points="528.506,237.512 486.715,279.205 493.334,288.012 515.875,263.221 	"/>
	<polyline fill="#F05824" points="529.924,352.851 485.373,294.148 491.916,290.721 	"/>
</g>
</svg>
